:SAMPLES-PER-SECOND 30
:FULLY-SPECIFIED
:DEGREES
382
root  -15.4454 33.9412 33.3814 9.92106 -59.8622 3.27885
RightUpLeg  -41.9381 -24.0312 14.9211
RightLeg  34.2666 -7.5023 -4.42517
RightFoot  -3.26176 0.00208168 0.677832
RightToes  -14.1626 -0.0513626 -0.128312
Spine  0.521538 -0.713985 -1.4572
Spine1  0.96751 -1.35368 -2.32378
HEad  -46.0661 -15.9771 5.30324
LeftShoulder1  -1.94126e-019 -3.10601e-018 -2.51263e-017
LeftArm  -7.15455 20.7194 -71.0982
LeftForeArm  24.9439 -29.3712 -4.97419
LeftHand  -0.41823 0.541034 10.0369
RightShoulder  -4.96962e-017 0 -2.36833e-017
RightArm  -22.4512 -16.3698 80.8603
RightForeArm  50.3362 16.3103 1.19695
RightHand  -0.100897 -4.69498 -14.578
LeftUpLeg  -8.47644 2.91641 0.00785074
LeftLeg  16.416 11.687 2.6187
LeftFoot  -5.09547 -0.0488133 -0.93546
LeftToes  -20.3801 1.34695e-006 1.12385e-007
383
root  -16.5441 33.7243 33.9744 9.38603 -62.1643 3.68113
RightUpLeg  -41.6462 -26.2057 18.2172
RightLeg  24.9332 -5.27639 -2.05245
RightFoot  -1.39127 -0.00398949 0.272278
RightToes  -15.8573 -0.0595888 -0.142708
Spine  0.424957 -0.752459 -1.3628
Spine1  0.780727 -1.46641 -2.13581
HEad  -45.7905 -16.7338 4.74704
LeftShoulder1  -1.94126e-019 -3.10601e-018 -2.51263e-017
LeftArm  -8.56882 19.438 -70.8031
LeftForeArm  25.8967 -27.3218 -4.51772
LeftHand  -0.424034 0.766359 10.651
RightShoulder  -4.96962e-017 0 -2.36833e-017
RightArm  -24.8135 -17.2762 80.9036
RightForeArm  51.4955 15.2619 1.20074
RightHand  -0.101203 -4.71058 -15.0155
LeftUpLeg  -6.14121 3.69802 -0.334775
LeftLeg  16.9103 13.0275 3.03088
LeftFoot  -6.0827 -0.0778012 -1.30269
LeftToes  -22.0119 1.34695e-006 1.12385e-007
384
root  -17.8151 33.4806 34.561 8.85515 -64.1272 4.03559
RightUpLeg  -40.4668 -28.6498 21.2929
RightLeg  17.6781 -5.87472 -1.46129
RightFoot  -1.34931 -0.00393328 0.26769
RightToes  -17.2801 -0.0668209 -0.154601
Spine  0.149194 -0.92449 -1.22151
Spine1  0.248535 -1.85452 -1.8275
HEad  -45.3145 -16.8692 4.08653
LeftShoulder1  -1.94126e-019 -3.10601e-018 -2.51263e-017
LeftArm  -10.778 18.9907 -70.7301
LeftForeArm  27.0557 -25.201 -4.24787
LeftHand  -0.418331 1.18972 11.5246
RightShoulder  -4.96962e-017 0 -2.36833e-017
RightArm  -27.2024 -18.5273 80.8611
RightForeArm  53.8239 13.8866 1.30554
RightHand  -0.125859 -4.51713 -15.0385
LeftUpLeg  -4.27832 4.90661 -0.339575
LeftLeg  18.77 13.2707 3.53873
LeftFoot  -6.48392 -0.0908181 -1.44168
LeftToes  -26.6278 1.34695e-006 1.12385e-007
385
root  -19.1835 33.2375 35.0428 11.0101 -65.6288 1.75583
RightUpLeg  -37.2476 -25.7395 21.2029
RightLeg  14.8997 -9.57408 -1.88673
RightFoot  -1.28136 -0.00311028 0.346568
RightToes  7.4711 0.0139362 0.0717014
Spine  -0.311415 -1.09586 -0.697351
Spine1  -0.667092 -2.23971 -0.78037
HEad  -45.4792 -18.1014 3.90136
LeftShoulder1  -1.94126e-019 -3.10601e-018 -2.51263e-017
LeftArm  -12.6074 19.4727 -70.8648
LeftForeArm  27.7755 -24.3758 -4.25769
LeftHand  -0.412835 1.45458 12.1116
RightShoulder  -4.96962e-017 0 -2.36833e-017
RightArm  -29.1443 -20.361 80.576
RightForeArm  55.4636 13.1394 1.37866
RightHand  -0.125233 -4.49828 -14.6053
LeftUpLeg  -4.18276 6.83018 1.23383
LeftLeg  23.5895 12.0275 4.31222
LeftFoot  -6.35216 -0.0814395 -1.30602
LeftToes  -35.5904 1.34695e-006 1.12385e-007
386
root  -20.5295 33.0527 35.4357 14.3979 -67.3889 -1.72333
RightUpLeg  -35.525 -18.5431 18.9629
RightLeg  19.159 -14.4267 -3.94229
RightFoot  -4.94821 0.0361421 1.46967
RightToes  13.8647 0.01837 0.134064
Spine  -0.706901 -1.14706 -0.0885572
Spine1  -1.46276 -2.37678 0.418289
HEad  -46.3918 -19.8944 4.04507
LeftShoulder1  -1.94126e-019 -3.10601e-018 -2.51263e-017
LeftArm  -14.8909 20.1131 -71.4423
LeftForeArm  28.6133 -24.3873 -4.38544
LeftHand  -0.410462 1.57433 12.4079
RightShoulder  -4.96962e-017 0 -2.36833e-017
RightArm  -31.3947 -21.7251 80.2775
RightForeArm  56.6908 12.4311 1.4474
RightHand  -0.14793 -4.29572 -14.3531
LeftUpLeg  -5.96262 10.4458 3.67033
LeftLeg  31.4964 9.02422 4.72567
LeftFoot  -3.77793 -0.0239371 -0.564248
LeftToes  -50.9478 1.34695e-006 1.12385e-007
387
root  -21.9391 33.1147 35.7885 17.0499 -70.365 -5.22827
RightUpLeg  -33.7249 -15.1937 18.2116
RightLeg  23.6086 -14.617 -5.22501
RightFoot  -6.58526 0.0776018 1.98344
RightToes  11.5754 0.0199796 0.111682
Spine  -0.732187 -0.950286 0.297537
Spine1  -1.51776 -1.99903 1.18782
HEad  -48.2229 -22.3127 4.53683
LeftShoulder1  -1.94126e-019 -3.10601e-018 -2.51263e-017
LeftArm  -19.6751 20.6437 -72.8598
LeftForeArm  31.0517 -23.6503 -4.30927
LeftHand  -0.430383 1.59067 13.0726
RightShoulder  -4.96962e-017 0 -2.36833e-017
RightArm  -34.5932 -22.0566 80.0653
RightForeArm  59.3767 11.3315 1.52124
RightHand  -0.184799 -3.96514 -14.0945
LeftUpLeg  -8.03142 13.8856 5.9476
LeftLeg  41.0671 6.11005 4.6432
LeftFoot  4.89075 -0.025531 0.759366
LeftToes  -64.972 1.34695e-006 1.12385e-007
388
root  -23.3425 33.2394 36.1324 17.0325 -73.7012 -6.5102
RightUpLeg  -30.0213 -18.2203 18.4421
RightLeg  23.4223 -9.44902 -3.37277
RightFoot  -8.54534 0.0787292 1.65404
RightToes  12.4921 0.0208534 0.120641
Spine  -0.492858 -0.867963 0.22063
Spine1  -1.04251 -1.83039 1.04117
HEad  -50.2581 -25.1796 6.66352
LeftShoulder1  -1.94126e-019 -3.10601e-018 -2.51263e-017
LeftArm  -20.8241 21.6435 -73.6653
LeftForeArm  29.2744 -23.6105 -4.27614
LeftHand  -0.368263 2.31841 13.7324
RightShoulder  -4.96962e-017 0 -2.36833e-017
RightArm  -35.387 -21.9188 80.1594
RightForeArm  59.7748 11.0585 1.53263
RightHand  -0.178669 -3.93071 -13.2427
LeftUpLeg  -10.604 15.3697 6.72686
LeftLeg  51.2299 4.67898 5.08622
LeftFoot  15.5253 -0.245672 1.96357
LeftToes  -58.0327 1.34695e-006 1.12385e-007
389
root  -24.5625 33.3611 36.3767 16.5208 -76.8839 -6.19076
RightUpLeg  -26.7438 -18.2154 17.4917
RightLeg  22.1931 -7.05484 -2.35642
RightFoot  -9.63016 0.0685047 1.39805
RightToes  11.8637 0.0210987 0.114499
Spine  -0.571157 -0.827994 -0.164781
Spine1  -1.20206 -1.72496 0.268137
HEad  -51.3101 -29.2786 8.93617
LeftShoulder1  -1.94126e-019 -3.10601e-018 -2.51263e-017
LeftArm  -17.9744 22.3603 -73.5185
LeftForeArm  24.1269 -23.9418 -4.34181
LeftHand  -0.32653 2.71083 13.8811
RightShoulder  -4.96962e-017 0 -2.36833e-017
RightArm  -34.6518 -21.7282 80.775
RightForeArm  58.8126 11.4298 1.51697
RightHand  -0.199543 -3.62238 -12.3385
LeftUpLeg  -15.8992 15.1163 5.84763
LeftLeg  61.2104 4.87013 7.58557
LeftFoot  23.0409 -0.716936 3.67791
LeftToes  -37.2884 1.34695e-006 1.12385e-007
390
root  -25.7739 33.5441 36.6232 17.1972 -80.7928 -7.0576
RightUpLeg  -23.2889 -14.0412 15.7259
RightLeg  21.3458 -7.83452 -2.48639
RightFoot  -10.0189 0.0887637 1.60219
RightToes  11.3354 0.0208243 0.109338
Spine  -0.640846 -0.607391 -0.551367
Spine1  -1.35074 -1.24735 -0.509535
HEad  -52.5176 -33.0437 10.6388
LeftShoulder1  -1.94126e-019 -3.10601e-018 -2.51263e-017
LeftArm  -16.6476 22.8458 -73.5725
LeftForeArm  23.1907 -23.9089 -4.29374
LeftHand  -0.353429 1.8504 11.4612
RightShoulder  -4.96962e-017 0 -2.36833e-017
RightArm  -33.2212 -21.5203 81.4795
RightForeArm  57.6496 12.7102 1.41046
RightHand  -0.204553 -3.59671 -12.4976
LeftUpLeg  -20.294 14.3807 4.78312
LeftLeg  67.2325 5.34175 10.5828
LeftFoot  18.1487 -0.594263 3.88105
LeftToes  -35.009 1.34695e-006 1.12385e-007
391
root  -27.0076 33.7783 36.8846 13.2435 -84.6305 -3.83417
RightUpLeg  -18.8797 -9.86368 13.4527
RightLeg  19.4058 -8.70929 -2.44055
RightFoot  -10.0417 0.103776 1.77618
RightToes  10.1593 0.0201388 0.097859
Spine  -0.551956 -0.555791 -1.07311
Spine1  -1.17569 -1.09964 -1.53149
HEad  -53.867 -36.0664 11.9674
LeftShoulder1  -1.94126e-019 -3.10601e-018 -2.51263e-017
LeftArm  -15.0167 23.0426 -73.6329
LeftForeArm  25.7097 -23.5362 -4.11345
LeftHand  -0.381155 1.03919 10.1411
RightShoulder  -4.96962e-017 0 -2.36833e-017
RightArm  -31.4586 -21.203 82.1974
RightForeArm  55.2168 14.656 1.18542
RightHand  -0.18788 -3.79192 -12.7755
LeftUpLeg  -23.6891 12.8107 3.50893
LeftLeg  69.2751 6.03269 13.0222
LeftFoot  14.7579 -0.482671 3.88735
LeftToes  -28.9301 1.34695e-006 1.12385e-007
392
root  -28.2469 34.0153 37.1589 -14.5324 -88.5765 23.2491
RightUpLeg  -14.3058 -6.79598 11.3622
RightLeg  16.5283 -8.43153 -1.91357
RightFoot  -9.68661 0.0910664 1.6682
RightToes  8.92806 0.0191507 0.0858628
Spine  -0.506009 -0.437455 -1.56362
Spine1  -1.07452 -0.836126 -2.46662
HEad  -54.7813 -38.3746 12.5242
LeftShoulder1  -1.94126e-019 -3.10601e-018 -2.51263e-017
LeftArm  -11.2826 23.4772 -73.7033
LeftForeArm  27.2237 -23.9479 -4.03577
LeftHand  -0.408929 0.206939 9.2104
RightShoulder  -4.96962e-017 0 -2.36833e-017
RightArm  -29.2941 -21.1054 82.405
RightForeArm  51.5974 17.1145 1.21093
RightHand  -0.168667 -3.99068 -12.9492
LeftUpLeg  -26.193 11.6952 2.44478
LeftLeg  67.4596 7.82539 15.436
LeftFoot  12.7138 -0.437921 4.09089
LeftToes  -28.7256 1.34695e-006 1.12385e-007
393
root  -29.3938 34.1866 37.4392 -144.549 -86.6432 153.22
RightUpLeg  -10.9494 -3.265 9.31928
RightLeg  14.2233 -7.86391 -1.45646
RightFoot  -9.50513 0.0790011 1.54044
RightToes  7.77205 0.017969 0.074623
Spine  -0.658887 -0.195406 -2.01599
Spine1  -1.374 -0.351605 -3.33325
HEad  -55.1253 -39.9466 12.4044
LeftShoulder1  -1.94126e-019 -3.10601e-018 -2.51263e-017
LeftArm  -9.58032 24.06 -74.0308
LeftForeArm  28.1843 -24.8759 -4.03863
LeftHand  -0.407734 0.167794 9.11826
RightShoulder  -4.96962e-017 0 -2.36833e-017
RightArm  -28.04 -21.1671 82.2477
RightForeArm  50.1473 20.8447 1.95553
RightHand  -0.221321 -3.37563 -12.1265
LeftUpLeg  -28.5138 10.496 1.62582
LeftLeg  62.2925 10.3887 16.4514
LeftFoot  9.2744 -0.264455 3.42109
LeftToes  -25.9344 1.34695e-006 1.12385e-007
394
root  -30.5472 34.2517 37.722 -155.405 -82.249 163.988
RightUpLeg  -8.4429 -1.60636 7.75993
RightLeg  13.1803 -6.31174 -1.0521
RightFoot  -10.3994 0.0715016 1.36613
RightToes  10.821 0.016703 0.104315
Spine  -0.731016 0.0960295 -2.2442
Spine1  -1.53385 0.246483 -3.79582
HEad  -56.5296 -39.4917 12.6272
LeftShoulder1  -1.94126e-019 -3.10601e-018 -2.51263e-017
LeftArm  -8.01979 24.2118 -74.2773
LeftForeArm  26.6732 -25.7925 -4.1981
LeftHand  -0.388772 -0.0330751 8.3907
RightShoulder  -4.96962e-017 0 -2.36833e-017
RightArm  -26.5973 -20.8573 81.6184
RightForeArm  49.8338 24.6387 2.70802
RightHand  -0.225288 -3.35389 -12.2306
LeftUpLeg  -29.497 8.63118 1.86103
LeftLeg  53.85 13.4466 15.5681
LeftFoot  6.15783 -0.123909 2.46489
LeftToes  -22.5392 1.34695e-006 1.12385e-007
395
root  -31.7718 34.2288 38.0005 -160.403 -78.1622 168.706
RightUpLeg  -6.08772 0.917971 6.41899
RightLeg  12.9752 -5.18918 -0.846514
RightFoot  -11.1197 0.0629165 1.21982
RightToes  8.52497 0.015459 0.0819408
Spine  -0.6682 0.3012 -2.14845
Spine1  -1.41601 0.676618 -3.61164
HEad  -57.1572 -39.1247 12.0999
LeftShoulder1  -1.94126e-019 -3.10601e-018 -2.51263e-017
LeftArm  -8.115 24.0194 -75.2181
LeftForeArm  26.5954 -26.1096 -4.2372
LeftHand  -0.384917 -0.374516 7.84538
RightShoulder  -4.96962e-017 0 -2.36833e-017
RightArm  -25.1471 -19.8716 80.3383
RightForeArm  49.6055 27.0482 3.21003
RightHand  -0.226662 -3.40186 -12.6069
LeftUpLeg  -28.7517 5.14327 3.34278
LeftLeg  42.5989 16.7517 13.0935
LeftFoot  3.6351 -0.044754 1.57185
LeftToes  -19.0109 1.34695e-006 1.12385e-007
396
root  -33.0313 34.0963 38.2714 -162.751 -74.4757 170.929
RightUpLeg  -4.89693 4.02237 5.22065
RightLeg  14.6974 -4.94654 -0.960705
RightFoot  -12.959 0.0875275 1.34224
RightToes  7.81142 0.0143473 0.0750055
Spine  -0.728068 0.434045 -2.02188
Spine1  -1.53379 0.949509 -3.36016
HEad  -57.5129 -37.9511 11.5727
LeftShoulder1  -1.94126e-019 -3.10601e-018 -2.51263e-017
LeftArm  -8.02472 23.9154 -75.962
LeftForeArm  27.1937 -26.5745 -4.30761
LeftHand  -0.389746 -0.420337 7.88437
RightShoulder  -4.96962e-017 0 -2.36833e-017
RightArm  -24.0965 -18.7781 79.0094
RightForeArm  49.0887 28.0192 3.43995
RightHand  -0.211259 -3.63684 -13.2452
LeftUpLeg  -27.3994 -1.54358 5.90324
LeftLeg  30.6421 18.5375 9.18159
LeftFoot  3.484 -0.0398249 1.471
LeftToes  -19.51 1.34695e-006 1.12385e-007
